<svg xmlns="http://www.w3.org/2000/svg" viewBox="0 0 800 380" class="benchmark-chart">
  <style>
    .chart-bg { fill: var(--chart-bg, #ffffff); }
    .chart-text { fill: var(--chart-text, #6b7280); font-family: system-ui, sans-serif; }
    .chart-title { fill: var(--chart-title, #1a1a1a); font-family: system-ui, sans-serif; font-weight: 600; }
    .chart-grid { stroke: var(--chart-grid, #e5e7eb); stroke-width: 1; }
    .chart-axis { stroke: var(--chart-axis, #9ca3af); stroke-width: 1; }
    @media (prefers-color-scheme: dark) {
      .chart-bg { fill: #1a1a1a; }
      .chart-text { fill: #9ca3af; }
      .chart-title { fill: #f0f0f0; }
      .chart-grid { stroke: #2e2e2e; }
      .chart-axis { stroke: #4b5563; }
    }
  </style>
  <rect class="chart-bg" width="800" height="380" rx="8"/>
  <text class="chart-title" x="400.0" y="25" text-anchor="middle" font-size="16">Compilation Time by Program</text>
  <line class="chart-grid" x1="70" y1="40.0" x2="770" y2="40.0"/>
  <text class="chart-text" x="60" y="44.0" text-anchor="end" font-size="11">1224.7ms</text>
  <line class="chart-grid" x1="70" y1="80.0" x2="770" y2="80.0"/>
  <text class="chart-text" x="60" y="84.0" text-anchor="end" font-size="11">979.7ms</text>
  <line class="chart-grid" x1="70" y1="120.0" x2="770" y2="120.0"/>
  <text class="chart-text" x="60" y="124.0" text-anchor="end" font-size="11">734.8ms</text>
  <line class="chart-grid" x1="70" y1="160.0" x2="770" y2="160.0"/>
  <text class="chart-text" x="60" y="164.0" text-anchor="end" font-size="11">489.9ms</text>
  <line class="chart-grid" x1="70" y1="200.0" x2="770" y2="200.0"/>
  <text class="chart-text" x="60" y="204.0" text-anchor="end" font-size="11">244.9ms</text>
  <line class="chart-grid" x1="70" y1="240.0" x2="770" y2="240.0"/>
  <text class="chart-text" x="60" y="244.0" text-anchor="end" font-size="11">0.0ms</text>
  <line class="chart-axis" x1="70" y1="40" x2="70" y2="240"/>
  <line class="chart-axis" x1="70" y1="240" x2="770" y2="240"/>
  <circle cx="420.0" cy="151.88343493008153" r="3" fill="#4f6ddb"/>
  <circle cx="420.0" cy="58.18181818181819" r="3" fill="#10b981"/>
  <circle cx="420.0" cy="149.61342065103847" r="3" fill="#f59e0b"/>
  <circle cx="420.0" cy="176.3409607174029" r="3" fill="#ef4444"/>
  <circle cx="420.0" cy="158.01231017311798" r="3" fill="#8b5cf6"/>
  <circle cx="420.0" cy="183.82237252583752" r="3" fill="#06b6d4"/>
  <circle cx="420.0" cy="168.94430699607784" r="3" fill="#ec4899"/>
  <text class="chart-text" x="420.0" y="255" text-anchor="end" font-size="10" transform="rotate(-45 420.0 255)">ea72413</text>
  <rect x="70" y="310" width="12" height="12" fill="#4f6ddb" rx="2"/>
  <text class="chart-text" x="88" y="320" font-size="11">arithmetic_heavy</text>
  <rect x="270" y="310" width="12" height="12" fill="#10b981" rx="2"/>
  <text class="chart-text" x="288" y="320" font-size="11">array_heavy</text>
  <rect x="470" y="310" width="12" height="12" fill="#f59e0b" rx="2"/>
  <text class="chart-text" x="488" y="320" font-size="11">control_flow</text>
  <rect x="70" y="330" width="12" height="12" fill="#ef4444" rx="2"/>
  <text class="chart-text" x="88" y="340" font-size="11">deep_nesting</text>
  <rect x="270" y="330" width="12" height="12" fill="#8b5cf6" rx="2"/>
  <text class="chart-text" x="288" y="340" font-size="11">large_structs</text>
  <rect x="470" y="330" width="12" height="12" fill="#06b6d4" rx="2"/>
  <text class="chart-text" x="488" y="340" font-size="11">many_functions</text>
  <rect x="70" y="350" width="12" height="12" fill="#ec4899" rx="2"/>
  <text class="chart-text" x="88" y="360" font-size="11">register_pressure</text>
</svg>